<svg id="Layer_1" data-name="Layer 1" xmlns="http://www.w3.org/2000/svg" viewBox="0 0 256 256"><defs><style>.cls-1{fill:#edf1f2;}.cls-2{fill:#ffb301;}.cls-3{fill:#3f8b76;}</style></defs><rect class="cls-1" width="256" height="256" rx="15.03"/><rect class="cls-2" x="26.46" y="32.1" width="67.45" height="33.39" rx="12.78"/><rect class="cls-3" x="95.11" y="83.64" width="108.11" height="60.5" rx="12.78"/><path class="cls-3" d="M84.94,181.37a30.57,30.57,0,0,1,0,23.65,30.59,30.59,0,0,1-16.23,16.23,29.5,29.5,0,0,1-11.8,2.36H26.46v-38H41.67v22.83H56.91a14.71,14.71,0,0,0,7.63-2,15.47,15.47,0,0,0,5.51-5.51,15.23,15.23,0,0,0,0-15.3A15.47,15.47,0,0,0,64.54,180a14.71,14.71,0,0,0-7.63-2H26.46v-15.2H56.91a29.51,29.51,0,0,1,11.8,2.37,31.11,31.11,0,0,1,9.69,6.53A30.53,30.53,0,0,1,84.94,181.37Z"/><polygon class="cls-3" points="140.93 200.78 110.39 162.59 95.11 162.59 95.11 200.78 95.11 208.4 95.11 223.67 110.39 223.67 110.39 208.4 110.39 200.78 110.39 185.48 140.93 223.67 156.23 223.67 156.23 162.59 140.93 162.59 140.93 200.78"/><polygon class="cls-3" points="196.79 180.79 196.81 180.79 196.82 180.78 196.83 180.79 197.32 180.79 214.35 223.9 229.54 223.9 211.17 180.79 211.19 180.79 203.62 162.99 203.58 162.99 203.55 162.93 203.42 162.99 190.28 162.99 164.44 223.9 197.49 223.9 197.49 211.82 184.2 211.82 196.79 180.85 196.79 180.79"/></svg>