<?xml version="1.0" standalone="no"?>
<!DOCTYPE svg PUBLIC "-//W3C//DTD SVG 20010904//EN"
 "http://www.w3.org/TR/2001/REC-SVG-20010904/DTD/svg10.dtd">
<svg version="1.0" xmlns="http://www.w3.org/2000/svg"
 width="256.000000pt" height="256.000000pt" viewBox="0 0 256.000000 256.000000"
 preserveAspectRatio="xMidYMid meet">

<g transform="translate(0.000000,256.000000) scale(0.100000,-0.100000)"
fill="#000000" stroke="none">
<path d="M1170 2365 c0 -42 2 -46 22 -43 30 4 37 38 9 45 -12 3 -21 12 -21 19
0 16 26 19 33 4 3 -6 4 -5 3 2 -1 7 -12 14 -24 16 -20 3 -22 -1 -22 -43z m40
-20 c0 -8 -7 -15 -15 -15 -8 0 -15 7 -15 15 0 8 7 15 15 15 8 0 15 -7 15 -15z"/>
<path d="M1826 2401 c-3 -4 6 -6 19 -3 14 2 25 6 25 8 0 8 -39 4 -44 -5z"/>
<path d="M2440 2365 c0 -40 2 -45 23 -45 29 0 47 18 47 45 0 27 -18 45 -47 45
-21 0 -23 -5 -23 -45z m55 0 c0 -23 -5 -31 -22 -33 -20 -3 -23 1 -23 33 0 32
3 36 23 33 17 -2 22 -10 22 -33z"/>
<path d="M1811 2365 c-1 -12 4 -26 11 -33 7 -7 21 -12 33 -11 17 1 16 2 -5 8
-14 4 -27 17 -31 31 -6 21 -7 22 -8 5z"/>
<path d="M530 2342 c0 -5 14 -7 30 -4 17 2 30 6 30 8 0 2 -13 4 -30 4 -16 0
-30 -4 -30 -8z"/>
<path d="M235 2270 c4 -6 123 -10 326 -10 206 0 319 4 319 10 0 6 -115 10
-326 10 -214 0 -323 -3 -319 -10z"/>
<path d="M103 1993 c20 -5 22 -23 5 -43 -7 -8 -4 -7 6 2 22 19 15 49 -11 47
-17 -1 -17 -2 0 -6z"/>
<path d="M93 1913 c9 -2 23 -2 30 0 6 3 -1 5 -18 5 -16 0 -22 -2 -12 -5z"/>
<path d="M220 1765 l0 -115 310 0 c200 0 310 4 310 10 0 6 -107 10 -300 10
l-300 0 0 95 0 95 325 0 c210 0 325 4 325 10 0 6 -118 10 -335 10 l-335 0 0
-115z"/>
<path d="M1314 1760 c0 -52 1 -74 3 -47 2 26 2 68 0 95 -2 26 -3 4 -3 -48z"/>
<path d="M480 1792 c0 -13 -7 -18 -22 -18 -19 1 -23 -4 -23 -29 0 -26 4 -30
28 -31 26 -1 27 1 27 47 0 27 -2 49 -5 49 -3 0 -5 -8 -5 -18z m-5 -47 c0 -11
-8 -21 -17 -23 -14 -3 -18 3 -18 23 0 20 4 26 18 23 9 -2 17 -12 17 -23z"/>
<path d="M560 1792 c0 -13 -7 -18 -22 -18 -19 1 -23 -4 -23 -29 0 -26 4 -30
28 -31 26 -1 27 1 27 47 0 27 -2 49 -5 49 -3 0 -5 -8 -5 -18z m-5 -47 c0 -11
-8 -21 -17 -23 -14 -3 -18 3 -18 23 0 20 4 26 18 23 9 -2 17 -12 17 -23z"/>
<path d="M891 1764 c-1 -49 0 -51 27 -50 23 1 27 5 27 31 0 23 -4 30 -20 30
-11 0 -23 9 -27 20 -3 12 -6 0 -7 -31z m49 -19 c0 -25 -23 -35 -35 -15 -10 16
2 40 20 40 9 0 15 -9 15 -25z"/>
<path d="M98 1793 c7 -3 16 -2 19 1 4 3 -2 6 -13 5 -11 0 -14 -3 -6 -6z"/>
<path d="M349 1755 c-9 -25 -13 -45 -8 -45 5 0 9 5 9 10 0 14 47 12 54 -2 8
-17 -4 31 -15 60 -13 33 -22 27 -40 -23z m41 -7 c0 -5 -7 -8 -15 -8 -15 0 -20
21 -8 33 7 7 23 -11 23 -25z"/>
<path d="M591 1753 l2 -48 6 40 6 40 23 -37 c13 -21 28 -38 33 -38 5 0 8 21 8
48 l-2 47 -6 -40 -6 -40 -22 38 c-30 50 -43 47 -42 -10z"/>
<path d="M1166 1784 c-8 -22 -7 -67 2 -81 4 -7 8 12 8 42 0 30 -1 55 -2 55 -1
0 -5 -7 -8 -16z"/>
<path d="M1232 1763 c-1 -23 -8 -44 -14 -46 -7 -3 1 -6 17 -6 17 0 25 3 18 7
-6 4 -13 25 -16 47 l-4 40 -1 -42z"/>
<path d="M693 1750 c2 -31 5 -35 30 -36 25 -1 27 2 26 35 -1 36 -1 36 -8 6 -3
-17 -13 -30 -21 -30 -8 0 -18 13 -22 30 -6 29 -6 29 -5 -5z"/>
<path d="M771 1741 c1 -36 1 -36 8 -6 3 17 13 30 21 30 8 0 18 -13 21 -30 l7
-30 1 33 c1 21 6 32 15 32 9 0 17 -13 19 -32 l5 -33 -2 35 c-1 35 -1 35 -48
36 l-48 1 1 -36z"/>
<path d="M974 1766 c-11 -30 0 -51 29 -52 25 -1 25 -1 2 3 -33 6 -32 23 1 23
19 0 25 5 22 18 -4 22 -46 29 -54 8z m46 -6 c0 -5 -9 -10 -21 -10 -11 0 -17 5
-14 10 3 6 13 10 21 10 8 0 14 -4 14 -10z"/>
<path d="M1051 1740 c1 -27 3 -29 6 -10 2 14 11 30 20 37 13 10 13 12 -6 10
-17 -1 -21 -7 -20 -37z"/>
<path d="M1104 1768 c-4 -6 0 -16 9 -23 22 -16 21 -22 0 -28 -14 -4 -12 -5 5
-6 25 -1 31 26 7 35 -20 8 -19 21 3 27 15 4 15 5 0 6 -9 0 -20 -4 -24 -11z"/>
<path d="M283 1763 c9 -2 25 -2 35 0 9 3 1 5 -18 5 -19 0 -27 -2 -17 -5z"/>
<path d="M120 1737 c0 -8 -10 -18 -22 -20 l-23 -4 23 -2 c22 -1 41 23 28 36
-3 4 -6 -1 -6 -10z"/>
<path d="M283 1733 c9 -2 25 -2 35 0 9 3 1 5 -18 5 -19 0 -27 -2 -17 -5z"/>
<path d="M1280 1714 c0 -8 5 -12 10 -9 6 3 10 10 10 16 0 5 -4 9 -10 9 -5 0
-10 -7 -10 -16z"/>
<path d="M850 1655 c0 -9 9 -15 25 -15 16 0 25 6 25 15 0 9 -9 15 -25 15 -16
0 -25 -6 -25 -15z"/>
<path d="M101 1577 c-13 -21 -12 -21 5 -5 10 10 16 20 13 22 -3 3 -11 -5 -18
-17z"/>
<path d="M583 1535 c0 -27 2 -38 4 -22 2 15 2 37 0 50 -2 12 -4 0 -4 -28z"/>
<path d="M653 1535 c0 -27 2 -38 4 -22 2 15 2 37 0 50 -2 12 -4 0 -4 -28z"/>
<path d="M682 1533 c1 -44 2 -45 5 -10 3 25 8 35 16 30 7 -4 6 0 -2 10 -20 25
-21 22 -19 -30z"/>
<path d="M741 1547 c-1 -28 -4 -36 -13 -31 -8 5 -7 0 2 -11 14 -17 15 -17 18
8 2 15 1 37 -1 50 -3 13 -5 7 -6 -16z"/>
<path d="M952 1535 c0 -36 2 -43 7 -25 4 15 14 24 24 24 9 -1 14 3 11 8 -3 5
-12 7 -19 4 -8 -3 -15 4 -18 17 -2 12 -4 0 -5 -28z"/>
<path d="M1462 1535 c0 -36 2 -43 7 -25 4 15 14 24 24 24 9 -1 14 3 11 8 -3 5
-12 7 -19 4 -8 -3 -15 4 -18 17 -2 12 -4 0 -5 -28z"/>
<path d="M1640 1570 c-9 -6 -10 -10 -3 -10 6 0 14 -17 16 -37 3 -35 4 -34 5
10 1 26 1 47 0 47 -2 0 -10 -5 -18 -10z"/>
<path d="M2001 1537 c-1 -45 1 -48 22 -45 16 2 23 11 25 32 3 25 1 28 -17 23
-15 -3 -21 1 -24 17 -2 11 -5 -1 -6 -27z m39 -17 c0 -21 -15 -27 -25 -10 -7
12 2 30 16 30 5 0 9 -9 9 -20z"/>
<path d="M2209 1569 l24 -9 -21 -23 c-30 -31 -28 -47 6 -46 24 2 25 2 4 6
l-24 5 22 23 c27 28 20 55 -12 54 l-23 0 24 -10z"/>
<path d="M74 1539 c-3 -5 9 -9 25 -9 17 0 31 2 31 4 0 8 -51 13 -56 5z"/>
<path d="M544 1535 c-8 -20 2 -45 18 -44 10 0 10 2 1 6 -7 2 -13 13 -13 23 0
10 6 21 13 23 9 4 9 6 -1 6 -7 1 -15 -6 -18 -14z"/>
<path d="M614 1535 c-8 -20 2 -45 18 -44 10 0 10 2 1 6 -7 2 -13 13 -13 23 0
10 6 21 13 23 9 4 9 6 -1 6 -7 1 -15 -6 -18 -14z"/>
<path d="M774 1520 c1 -18 7 -26 24 -28 19 -3 22 1 21 30 -2 30 -2 31 -6 6 -5
-34 -30 -37 -36 -5 -3 19 -4 19 -3 -3z"/>
<path d="M841 1516 c1 -28 2 -29 8 -7 9 34 29 37 34 6 4 -24 4 -24 3 2 -1 22
-6 28 -23 29 -19 1 -23 -4 -22 -30z"/>
<path d="M906 1543 c7 -4 14 -19 17 -33 4 -22 5 -21 4 4 -1 17 -9 31 -17 33
-10 3 -11 2 -4 -4z"/>
<path d="M1024 1535 c-9 -23 3 -45 23 -44 17 1 17 2 1 6 -10 2 -18 9 -18 14 0
5 8 9 18 10 14 0 14 2 -3 8 l-20 8 20 5 c17 5 17 6 2 7 -10 0 -20 -6 -23 -14z"/>
<path d="M1082 1520 c0 -19 2 -27 5 -17 2 9 2 25 0 35 -3 9 -5 1 -5 -18z"/>
<path d="M1128 1543 c7 -3 16 -2 19 1 4 3 -2 6 -13 5 -11 0 -14 -3 -6 -6z"/>
<path d="M1172 1525 c0 -16 2 -22 5 -12 2 9 2 23 0 30 -3 6 -5 -1 -5 -18z"/>
<path d="M1212 1520 c0 -19 2 -27 5 -17 2 9 2 25 0 35 -3 9 -5 1 -5 -18z"/>
<path d="M1236 1543 c7 -4 14 -19 17 -33 4 -22 5 -21 4 4 -1 17 -9 31 -17 33
-10 3 -11 2 -4 -4z"/>
<path d="M1284 1520 c1 -18 7 -26 24 -28 19 -3 22 1 21 30 -2 30 -2 31 -6 6
-5 -34 -30 -37 -36 -5 -3 19 -4 19 -3 -3z"/>
<path d="M1351 1516 c1 -28 2 -29 8 -7 9 34 29 37 34 6 4 -24 4 -24 3 2 -1 22
-6 28 -23 29 -19 1 -23 -4 -22 -30z"/>
<path d="M1416 1543 c7 -4 14 -19 17 -33 4 -22 5 -21 4 4 -1 17 -9 31 -17 33
-10 3 -11 2 -4 -4z"/>
<path d="M1534 1535 c-9 -23 3 -45 23 -44 17 1 17 2 1 6 -10 2 -18 9 -18 14 0
5 8 9 18 10 14 0 14 2 -3 8 l-20 8 20 5 c17 5 17 6 2 7 -10 0 -20 -6 -23 -14z"/>
<path d="M1592 1520 c0 -19 2 -27 5 -17 2 9 2 25 0 35 -3 9 -5 1 -5 -18z"/>
<path d="M1751 1518 c1 -30 2 -30 8 -9 9 35 29 37 34 4 4 -27 4 -27 6 5 1 28
-2 32 -24 32 -22 0 -25 -4 -24 -32z"/>
<path d="M1821 1523 c-1 -29 2 -33 24 -33 22 0 25 4 24 33 -2 30 -2 30 -6 5
-2 -16 -10 -28 -18 -28 -8 0 -16 12 -18 28 -4 25 -4 25 -6 -5z"/>
<path d="M1891 1518 c1 -30 2 -30 8 -9 9 35 29 37 34 4 4 -27 4 -27 6 5 1 28
-2 32 -24 32 -22 0 -25 -4 -24 -32z"/>
<path d="M1956 1539 c7 -8 14 -23 17 -34 4 -13 5 -9 4 9 -1 16 -9 32 -17 34
-12 4 -13 2 -4 -9z"/>
<path d="M2074 1535 c-10 -24 4 -45 28 -44 23 0 23 0 -2 11 -25 11 -25 11 -2
15 12 3 22 11 22 19 0 19 -39 18 -46 -1z m33 -1 c-3 -3 -12 -4 -19 -1 -8 3 -5
6 6 6 11 1 17 -2 13 -5z"/>
<path d="M2140 1520 c0 -16 5 -30 10 -30 6 0 10 11 10 24 0 13 6 27 13 29 6 3
2 6 -10 6 -19 1 -23 -4 -23 -29z"/>
<path d="M2272 1525 c0 -16 2 -22 5 -12 2 9 2 23 0 30 -3 6 -5 -1 -5 -18z"/>
<path d="M460 1513 c0 -5 14 -8 30 -8 17 0 30 3 30 8 0 4 -13 7 -30 7 -16 0
-30 -3 -30 -7z"/>
<path d="M982 1504 c-7 -8 -8 -14 -3 -14 10 0 25 19 20 25 -2 1 -10 -3 -17
-11z"/>
<path d="M1492 1504 c-7 -8 -8 -14 -3 -14 10 0 25 19 20 25 -2 1 -10 -3 -17
-11z"/>
<path d="M1128 1493 c7 -3 16 -2 19 1 4 3 -2 6 -13 5 -11 0 -14 -3 -6 -6z"/>
<path d="M662 1403 c-5 -10 -5 -31 -1 -48 l7 -30 2 30 c1 17 2 34 1 39 -1 5 4
13 11 17 9 6 10 9 1 9 -7 0 -16 -8 -21 -17z"/>
<path d="M1182 1375 c0 -35 2 -43 7 -26 9 35 29 37 34 4 5 -28 5 -28 3 2 0 19
-6 30 -16 30 -8 0 -18 9 -22 20 -3 12 -6 -1 -6 -30z"/>
<path d="M1483 1375 c0 -27 2 -38 4 -22 2 15 2 37 0 50 -2 12 -4 0 -4 -28z"/>
<path d="M1553 1375 c0 -27 2 -38 4 -22 2 15 2 37 0 50 -2 12 -4 0 -4 -28z"/>
<path d="M2142 1375 c0 -36 2 -43 7 -25 4 15 14 24 24 24 9 -1 14 3 11 8 -3 5
-12 7 -19 4 -8 -3 -15 4 -18 17 -2 12 -4 0 -5 -28z"/>
<path d="M899 1399 c-2 -24 2 -54 10 -61 3 -4 6 9 5 28 -2 35 -13 60 -15 33z"/>
<path d="M1139 1399 c-2 -24 2 -54 10 -61 3 -4 6 9 5 28 -2 35 -13 60 -15 33z"/>
<path d="M1309 1399 c-2 -24 2 -54 10 -61 3 -4 6 9 5 28 -2 35 -13 60 -15 33z"/>
<path d="M1659 1399 c-2 -24 2 -54 10 -61 3 -4 6 9 5 28 -2 35 -13 60 -15 33z"/>
<path d="M98 1393 c6 -2 18 -2 25 0 6 3 1 5 -13 5 -14 0 -19 -2 -12 -5z"/>
<path d="M462 1360 c0 -19 2 -27 5 -17 2 9 2 25 0 35 -3 9 -5 1 -5 -18z"/>
<path d="M498 1383 c7 -3 16 -2 19 1 4 3 -2 6 -13 5 -11 0 -14 -3 -6 -6z"/>
<path d="M588 1382 c11 -7 11 -10 -2 -15 -23 -9 -20 -37 5 -37 16 0 20 5 17
27 -2 14 -10 28 -18 30 -12 4 -12 3 -2 -5z m12 -32 c0 -5 -4 -10 -10 -10 -5 0
-10 5 -10 10 0 6 5 10 10 10 6 0 10 -4 10 -10z"/>
<path d="M704 1360 c1 -18 7 -26 24 -28 19 -3 22 1 21 30 -2 30 -2 31 -6 6 -5
-34 -30 -37 -36 -5 -3 19 -4 19 -3 -3z"/>
<path d="M772 1360 c0 -19 2 -27 5 -17 2 9 2 25 0 35 -3 9 -5 1 -5 -18z"/>
<path d="M796 1383 c7 -4 14 -19 17 -33 4 -22 5 -21 4 4 -1 17 -9 31 -17 33
-10 3 -11 2 -4 -4z"/>
<path d="M844 1375 c-9 -23 3 -45 23 -44 17 1 17 2 1 6 -10 2 -18 13 -18 23 0
10 8 21 18 23 16 4 16 5 -1 6 -10 0 -20 -6 -23 -14z"/>
<path d="M942 1360 c0 -19 2 -27 5 -17 2 9 2 25 0 35 -3 9 -5 1 -5 -18z"/>
<path d="M974 1375 c-13 -32 23 -63 40 -36 4 5 -3 7 -14 4 -16 -4 -20 0 -20
17 0 17 4 21 20 17 11 -3 18 -1 14 4 -8 14 -34 11 -40 -6z"/>
<path d="M1042 1360 c0 -19 2 -27 5 -17 2 9 2 25 0 35 -3 9 -5 1 -5 -18z"/>
<path d="M1066 1383 c7 -4 14 -19 17 -33 4 -22 5 -21 4 4 -1 17 -9 31 -17 33
-10 3 -11 2 -4 -4z"/>
<path d="M1268 1382 c11 -7 11 -10 -2 -15 -23 -9 -20 -37 5 -37 16 0 20 5 17
27 -2 14 -10 28 -18 30 -12 4 -12 3 -2 -5z m12 -32 c0 -5 -4 -10 -10 -10 -5 0
-10 5 -10 10 0 6 5 10 10 10 6 0 10 -4 10 -10z"/>
<path d="M1398 1382 c11 -7 11 -10 -2 -15 -23 -9 -20 -37 5 -37 16 0 20 5 17
27 -2 14 -10 28 -18 30 -12 4 -12 3 -2 -5z m12 -32 c0 -5 -4 -10 -10 -10 -5 0
-10 5 -10 10 0 6 5 10 10 10 6 0 10 -4 10 -10z"/>
<path d="M1444 1375 c-8 -20 2 -45 18 -44 10 0 10 2 1 6 -7 2 -13 13 -13 23 0
10 6 21 13 23 9 4 9 6 -1 6 -7 1 -15 -6 -18 -14z"/>
<path d="M1514 1375 c-8 -20 2 -45 18 -44 10 0 10 2 1 6 -7 2 -13 13 -13 23 0
10 6 21 13 23 9 4 9 6 -1 6 -7 1 -15 -6 -18 -14z"/>
<path d="M1588 1383 c7 -3 16 -2 19 1 4 3 -2 6 -13 5 -11 0 -14 -3 -6 -6z"/>
<path d="M1730 1385 c0 -5 5 -17 10 -25 5 -8 10 -10 10 -5 0 6 -5 17 -10 25
-5 8 -10 11 -10 5z"/>
<path d="M1794 1375 c-13 -32 23 -63 40 -36 4 5 -3 7 -14 4 -16 -4 -20 0 -20
17 0 17 4 21 20 17 11 -3 18 -1 14 4 -8 14 -34 11 -40 -6z"/>
<path d="M1892 1360 c0 -19 2 -27 5 -17 2 9 2 25 0 35 -3 9 -5 1 -5 -18z"/>
<path d="M1916 1383 c7 -4 14 -19 17 -33 4 -22 5 -21 4 4 -1 17 -9 31 -17 33
-10 3 -11 2 -4 -4z"/>
<path d="M1964 1360 c1 -18 7 -26 24 -28 19 -3 22 1 21 30 -2 30 -2 31 -6 6
-5 -34 -30 -37 -36 -5 -3 19 -4 19 -3 -3z"/>
<path d="M2031 1356 c1 -28 2 -29 8 -7 9 34 29 37 34 6 4 -24 4 -24 3 2 -1 22
-6 28 -23 29 -19 1 -23 -4 -22 -30z"/>
<path d="M2096 1383 c7 -4 14 -19 17 -33 4 -22 5 -21 4 4 -1 17 -9 31 -17 33
-10 3 -11 2 -4 -4z"/>
<path d="M2214 1375 c-9 -23 3 -45 23 -44 17 1 17 2 1 6 -10 2 -18 9 -18 14 0
5 8 9 18 10 14 0 14 2 -3 8 l-20 8 20 5 c17 5 17 6 2 7 -10 0 -20 -6 -23 -14z"/>
<path d="M2272 1360 c0 -19 2 -27 5 -17 2 9 2 25 0 35 -3 9 -5 1 -5 -18z"/>
<path d="M2318 1383 c7 -3 16 -2 19 1 4 3 -2 6 -13 5 -11 0 -14 -3 -6 -6z"/>
<path d="M103 1364 c24 -7 22 -42 -3 -47 -17 -4 -16 -4 2 -3 31 1 33 50 3 53
-16 1 -16 1 -2 -3z"/>
<path d="M1701 1365 c0 -5 3 -16 8 -23 7 -11 9 -10 14 3 4 9 3 14 -2 10 -5 -3
-12 1 -14 7 -3 7 -6 9 -6 3z"/>
<path d="M2172 1344 c-7 -8 -8 -14 -3 -14 10 0 25 19 20 25 -2 1 -10 -3 -17
-11z"/>
<path d="M498 1333 c7 -3 16 -2 19 1 4 3 -2 6 -13 5 -11 0 -14 -3 -6 -6z"/>
<path d="M1588 1333 c7 -3 16 -2 19 1 4 3 -2 6 -13 5 -11 0 -14 -3 -6 -6z"/>
<path d="M2318 1333 c7 -3 16 -2 19 1 4 3 -2 6 -13 5 -11 0 -14 -3 -6 -6z"/>
<path d="M716 1229 c-10 -52 -8 -61 17 -57 16 2 23 11 25 31 2 15 -1 27 -6 27
-6 0 -8 -8 -5 -19 3 -10 0 -22 -7 -26 -17 -11 -20 -3 -11 38 5 20 5 37 1 37
-4 0 -10 -14 -14 -31z"/>
<path d="M913 1253 c21 -6 23 -32 2 -39 -9 -4 -20 -15 -26 -25 -8 -17 -6 -19
18 -18 19 1 22 3 10 6 -18 5 -18 6 2 19 30 21 28 64 -1 63 -17 -1 -19 -2 -5
-6z"/>
<path d="M1048 1253 c7 -3 16 -2 19 1 4 3 -2 6 -13 5 -11 0 -14 -3 -6 -6z"/>
<path d="M458 1200 c-3 -16 -1 -30 4 -30 4 0 8 6 8 14 0 8 3 21 6 30 3 9 2 16
-4 16 -5 0 -12 -13 -14 -30z"/>
<path d="M495 1200 c0 -16 3 -30 8 -30 4 0 7 14 7 30 0 17 -3 30 -7 30 -5 0
-8 -13 -8 -30z"/>
<path d="M530 1200 c0 -25 4 -30 24 -30 19 0 25 6 28 30 3 17 1 30 -3 30 -4 0
-9 -10 -11 -22 -2 -12 -9 -23 -17 -26 -10 -3 -12 2 -7 22 4 15 2 26 -4 26 -5
0 -10 -13 -10 -30z"/>
<path d="M598 1200 c-3 -16 -1 -30 4 -30 4 0 8 6 8 14 0 8 3 21 6 30 3 9 2 16
-4 16 -5 0 -12 -13 -14 -30z"/>
<path d="M634 1200 c-1 -17 3 -30 7 -30 5 0 9 9 9 20 0 11 0 23 1 27 0 4 -3 9
-8 10 -4 2 -8 -11 -9 -27z"/>
<path d="M673 1200 c-1 -18 2 -28 7 -25 12 7 14 55 3 55 -5 0 -9 -14 -10 -30z"/>
<path d="M787 1223 c-4 -3 -7 -17 -7 -30 0 -18 5 -23 23 -22 16 1 18 2 5 6
-24 6 -23 19 2 26 11 3 20 10 20 16 0 12 -33 15 -43 4z m30 -9 c-3 -3 -12 -4
-19 -1 -8 3 -5 6 6 6 11 1 17 -2 13 -5z"/>
<path d="M838 1200 c-3 -16 -1 -30 4 -30 4 0 8 6 8 14 0 8 3 21 6 30 3 9 2 16
-4 16 -5 0 -12 -13 -14 -30z"/>
<path d="M960 1220 c0 -5 5 -10 10 -10 6 0 10 5 10 10 0 6 -4 10 -10 10 -5 0
-10 -4 -10 -10z"/>
<path d="M1040 1218 c15 -18 12 -36 -7 -41 -17 -4 -17 -5 0 -6 24 -1 33 27 13
45 -9 8 -11 9 -6 2z"/>
<path d="M1087 1223 c-12 -12 -7 -23 11 -23 14 0 14 2 3 9 -11 7 -10 10 5 14
14 3 15 5 3 6 -9 0 -19 -2 -22 -6z"/>
<path d="M1146 1221 c-4 -5 3 -7 14 -4 23 6 26 13 6 13 -8 0 -17 -4 -20 -9z"/>
<path d="M1196 1221 c-4 -5 3 -7 14 -4 29 8 26 -25 -2 -37 -16 -6 -18 -9 -7
-9 22 -1 43 25 35 44 -6 16 -32 20 -40 6z"/>
<path d="M1287 1210 c3 -11 7 -20 9 -20 2 0 4 9 4 20 0 11 -4 20 -9 20 -5 0
-7 -9 -4 -20z"/>
<path d="M1327 1223 c-3 -5 6 -8 19 -8 13 0 24 3 24 8 0 4 -9 7 -19 7 -11 0
-22 -3 -24 -7z"/>
<path d="M1457 1210 c3 -11 7 -20 9 -20 2 0 4 9 4 20 0 11 -4 20 -9 20 -5 0
-7 -9 -4 -20z"/>
<path d="M1570 1216 c-5 -5 -10 -14 -10 -20 0 -5 7 -1 15 10 10 13 17 16 22 7
6 -8 12 -8 25 1 15 11 14 13 -12 13 -16 0 -34 -5 -40 -11z"/>
<path d="M1673 1223 c-7 -2 -13 -12 -13 -21 1 -15 2 -15 11 1 12 21 29 22 29
2 0 -9 -10 -20 -22 -25 -16 -6 -18 -9 -7 -9 22 -1 43 25 35 44 -6 15 -12 17
-33 8z"/>
<path d="M1737 1223 c-12 -12 -7 -23 11 -23 14 0 14 2 3 9 -11 7 -10 10 5 14
14 3 15 5 3 6 -9 0 -19 -2 -22 -6z"/>
<path d="M1801 1221 c-7 -5 -12 -14 -10 -20 2 -6 10 -2 17 9 14 22 13 23 -7
11z"/>
<path d="M1255 1209 c-4 -6 -5 -12 -2 -15 2 -3 7 2 10 11 7 17 1 20 -8 4z"/>
<path d="M1425 1209 c-4 -6 -5 -12 -2 -15 2 -3 7 2 10 11 7 17 1 20 -8 4z"/>
<path d="M92 1188 c-17 -17 -15 -67 4 -75 8 -3 20 -1 26 5 8 8 5 9 -11 5 -17
-4 -21 -1 -21 17 0 17 4 21 20 17 27 -7 25 2 -2 12 l-23 9 25 10 c14 6 18 11
10 11 -9 1 -21 -4 -28 -11z"/>
<path d="M950 1180 c0 -5 5 -10 10 -10 6 0 10 5 10 10 0 6 -4 10 -10 10 -5 0
-10 -4 -10 -10z"/>
<path d="M1080 1180 c0 -6 7 -10 15 -10 8 0 15 2 15 4 0 2 -7 6 -15 10 -8 3
-15 1 -15 -4z"/>
<path d="M1335 1180 c-19 -8 -19 -9 3 -9 12 -1 22 4 22 9 0 6 -1 10 -2 9 -2 0
-12 -4 -23 -9z"/>
<path d="M1730 1180 c0 -6 7 -10 15 -10 8 0 15 2 15 4 0 2 -7 6 -15 10 -8 3
-15 1 -15 -4z"/>
<path d="M1148 1173 c7 -3 16 -2 19 1 4 3 -2 6 -13 5 -11 0 -14 -3 -6 -6z"/>
<path d="M80 996 c0 -2 11 -6 25 -8 14 -3 25 -1 25 3 0 5 -11 9 -25 9 -14 0
-25 -2 -25 -4z"/>
<path d="M86 788 c-9 -28 -2 -43 19 -43 17 0 22 6 21 25 -1 27 -33 41 -40 18z
m34 -13 c0 -8 -7 -15 -15 -15 -8 0 -15 7 -15 15 0 8 7 15 15 15 8 0 15 -7 15
-15z"/>
<path d="M87 718 c2 -5 10 -8 18 -8 8 0 16 3 18 8 3 4 -5 7 -18 7 -13 0 -21
-3 -18 -7z"/>
<path d="M84 586 c-3 -9 -4 -22 -1 -30 7 -17 44 -27 44 -11 0 7 -8 10 -19 7
-13 -3 -18 1 -18 17 0 21 24 29 33 11 3 -6 4 -5 3 2 -4 19 -35 22 -42 4z"/>
<path d="M88 513 c7 -3 16 -2 19 1 4 3 -2 6 -13 5 -11 0 -14 -3 -6 -6z"/>
<path d="M124 385 c-4 -9 -4 -19 0 -22 3 -4 6 1 6 10 0 18 25 23 33 7 3 -6 4
-5 3 2 -4 19 -35 22 -42 3z"/>
<path d="M124 330 c2 -18 38 -20 42 -2 1 7 0 8 -3 2 -7 -14 -31 -13 -36 3 -2
7 -3 6 -3 -3z"/>
</g>
</svg>
